<svg xmlns="http://www.w3.org/2000/svg" viewBox="0 0 734.27 578.71">
  <g>
    <path fill="currentColor" d="M698.7,218.06h18.78v-67.1h-293.71c0,11.93.45,22.9.42,34.83,0,.79.28,1.22.9,1.67,25.34,18.15,44.63,30.59,44.63,30.59h-45.96s.49,9.35.49,15.36c-.06.01-.17,2.04-.17,2.04l-31.69-84.5h-37.96s-22.34,58.49-31.58,86.22c-.1,0-.19-4.02-.28-4.03v-71.31c0-7.11.49-10.88.49-10.88h-37.76v33.55h-20.98v-33.55h-134.27v100.64h37.76s.37-33.42.37-51.01c.09-.02.18-.03.26-.05,2.6,6.7,5.12,14.93,7.76,21.71h50.35v29.35h37.76v-33.55h20.98v33.55h70.33l18.09-55.39,17.47,55.39h259.14v-51.32l30.9,72.27,38.43.02-20.98-54.52Zm-174.22-33.55v32.35l-40.76-32.35h40.76Z"/>
    <path fill="currentColor" d="M524.48,180.32h-50.35l50.35,41.94v25.16h-96.5v-25.16h54.55l-54.55-37.74v-29.35h96.5v25.16Zm-264.34,67.1h-29.37v-92.26h29.37v33.55h29.37v-33.55h29.37v92.26h-29.37v-33.55h-29.37v33.55Zm113.29-62.9l-20.98,62.9h-29.37l33.57-92.26h33.57l33.57,92.26h-29.37l-20.98-62.9Zm-239.16-29.35v92.26h29.37v-62.9h37.76v4.19h-33.57l12.59,29.35h46.15v-62.9h-92.31Zm478.32,29.35v-29.35h-83.92v92.26h83.92v-25.16h-58.74v-4.19h58.74v-29.35h-58.74v-4.19h58.74Zm79.72,29.35h20.98v-58.71h-96.5v92.26h29.37v-62.9h37.76v4.19h-33.57l33.57,79.68h29.37l-20.98-54.52Z"/>
  </g>
</svg>
