<?xml version="1.0" standalone="no"?>
<!DOCTYPE svg PUBLIC "-//W3C//DTD SVG 20010904//EN"
 "http://www.w3.org/TR/2001/REC-SVG-20010904/DTD/svg10.dtd">
<svg version="1.0" xmlns="http://www.w3.org/2000/svg"
 width="811.000000pt" height="427.000000pt" viewBox="0 0 811.000000 427.000000"
 preserveAspectRatio="xMidYMid meet">

<g transform="translate(0.000000,427.000000) scale(0.100000,-0.100000)"
fill="currentColor" stroke="none">
<path d="M2150 3530 c-740 -275 -1427 -531 -1527 -568 -101 -37 -183 -69 -183
-72 0 -9 621 -670 630 -670 4 0 183 72 396 161 214 89 450 186 524 216 l135
56 68 -11 c57 -9 74 -16 110 -49 23 -21 504 -460 1069 -976 565 -516 1037
-946 1050 -956 23 -18 25 -16 268 131 203 124 730 447 873 535 l38 24 -103 83
c-57 45 -499 397 -983 781 -987 784 -1165 926 -1165 935 0 4 198 89 440 190
242 101 437 187 433 190 -22 20 -715 500 -721 500 -4 -1 -612 -226 -1352 -500z
m1695 241 c184 -128 335 -237 335 -241 0 -4 -195 -87 -432 -185 -238 -97 -436
-180 -440 -184 -4 -3 86 -81 200 -171 114 -91 293 -233 397 -316 105 -83 510
-404 900 -714 391 -310 722 -573 737 -585 l26 -22 -556 -338 c-307 -186 -560
-340 -564 -342 -4 -2 -195 169 -425 379 -1528 1398 -1813 1658 -1817 1658 -3
0 -245 -99 -538 -221 -293 -122 -547 -227 -565 -234 l-31 -13 -302 320 c-166
175 -300 321 -299 322 2 2 614 229 1359 506 745 276 1425 529 1510 561 85 32
158 57 162 56 5 -1 159 -107 343 -236z" vector-effect="non-scaling-stroke" fill="none" stroke="currentColor" stroke-width="1"/>
<path d="M3097 3800 c-218 -81 -399 -149 -402 -152 -3 -2 121 -104 274 -226
l279 -222 403 166 c222 91 407 169 411 173 5 4 -83 71 -195 148 -111 78 -240
168 -287 201 l-85 60 -398 -148z m673 -71 c202 -141 257 -185 243 -190 -10 -4
-184 -75 -387 -158 -203 -84 -374 -150 -380 -147 -6 2 -125 95 -264 205 -202
160 -250 202 -235 208 264 103 732 272 745 269 9 -2 134 -86 278 -187z" vector-effect="non-scaling-stroke" fill="none" stroke="currentColor" stroke-width="1"/>
<path d="M2155 3451 c-247 -92 -456 -170 -464 -172 -8 -3 94 -102 258 -251
l272 -246 202 83 c620 253 757 310 757 315 -1 10 -550 440 -562 440 -7 -1
-215 -76 -463 -169z m714 -47 c135 -108 252 -202 259 -209 11 -10 -79 -50
-443 -199 -397 -164 -458 -186 -473 -174 -9 7 -124 110 -256 228 -198 179
-235 216 -220 222 35 15 869 326 878 327 5 1 119 -87 255 -195z" vector-effect="non-scaling-stroke" fill="none" stroke="currentColor" stroke-width="1"/>
<path d="M1100 3060 c-278 -104 -511 -192 -518 -197 -9 -6 57 -81 224 -258
129 -137 246 -261 258 -273 l23 -24 534 222 c294 122 535 224 537 225 5 5
-536 495 -545 494 -4 0 -235 -85 -513 -189z m770 -64 c242 -221 251 -230 228
-242 -12 -6 -241 -103 -508 -214 -267 -111 -488 -204 -491 -206 -7 -4 -489
503 -489 514 0 8 989 381 1001 378 4 0 120 -104 259 -230z" vector-effect="non-scaling-stroke" fill="none" stroke="currentColor" stroke-width="1"/>
<path d="M2755 2940 c-253 -104 -466 -192 -474 -197 -10 -6 61 -77 270 -268
155 -143 291 -266 300 -273 16 -11 85 19 506 214 268 124 489 227 491 228 5 6
-608 486 -620 485 -7 0 -220 -85 -473 -189z m760 -56 c157 -124 285 -228 285
-232 0 -7 -897 -424 -924 -430 -12 -3 -566 494 -566 507 0 4 899 377 918 380
2 1 131 -101 287 -225z" vector-effect="non-scaling-stroke" fill="none" stroke="currentColor" stroke-width="1"/>
<path d="M3396 2374 c-264 -123 -480 -225 -482 -227 -2 -2 547 -508 642 -590
l44 -38 492 256 c271 141 497 260 502 265 11 11 -679 560 -702 559 -9 -1 -233
-102 -496 -225z m831 -55 c181 -144 329 -264 330 -268 5 -11 -337 -183 -352
-177 -8 3 -15 0 -15 -7 0 -15 -578 -320 -594 -313 -6 2 -154 135 -329 296
l-318 291 88 40 c398 184 783 364 812 379 20 11 39 19 43 20 4 0 155 -118 335
-261z" vector-effect="non-scaling-stroke" fill="none" stroke="currentColor" stroke-width="1"/>
<path d="M4148 1742 c-274 -141 -497 -260 -498 -264 0 -4 107 -105 238 -225
130 -119 310 -284 399 -366 l163 -149 505 307 c278 169 505 311 505 315 0 11
-785 634 -802 637 -7 2 -237 -113 -510 -255 z" vector-effect="non-scaling-stroke" fill="none" stroke="currentColor" stroke-width="1"/>

<path d="M6441 3727 c-40 -31 -50 -44 -40 -50 8 -5 96 -64 197 -132 l182 -122
-51 -7 c-121 -16 -228 -79 -261 -153 -23 -51 -19 -92 14 -156 71 -139 343
-323 556 -377 217 -54 380 -33 548 72 58 36 154 127 154 146 0 9 -1215 815
-1234 819 -6 1 -35 -17 -65 -40z m697 -395 l583 -385 -43 -44 c-56 -57 -166
-125 -248 -154 -90 -31 -269 -31 -385 0 -257 69 -539 281 -570 428 -22 109
101 204 287 221 l81 7 -212 141 -212 141 42 32 c41 30 44 30 68 14 14 -9 288
-190 609 -401z" vector-effect="non-scaling-stroke" fill="none" stroke="currentColor" stroke-width="1"/>
<path d="M6810 3316 c-104 -23 -160 -70 -160 -133 0 -47 19 -80 82 -139 162
-153 388 -241 548 -214 73 13 164 57 206 101 15 16 26 31 23 33 -2 2 -128 85
-280 185 -305 200 -292 195 -419 167z m406 -183 l266 -177 -33 -29 c-19 -15
-59 -40 -88 -55 -47 -22 -68 -26 -140 -26 -134 1 -265 49 -396 146 -108 80
-155 139 -155 194 0 66 103 116 252 123 19 1 102 -49 294 -176z" vector-effect="non-scaling-stroke" fill="none" stroke="currentColor" stroke-width="1"/>
<path d="M5925 3030 c-177 -38 -288 -144 -272 -260 14 -103 119 -230 277 -335
180 -120 320 -167 505 -168 162 -2 264 30 387 120 49 35 111 110 103 124 -3 4
-39 26 -81 49 l-75 41 -44 -49 c-54 -59 -164 -118 -252 -133 -50 -9 -78 -8
-136 4 -68 14 -227 81 -227 96 0 3 113 64 250 136 138 71 250 133 250 137 0
14 -169 119 -261 162 -52 25 -123 52 -158 61 -76 19 -211 27 -266 15z m223
-26 c117 -23 301 -110 411 -193 l23 -18 -256 -132 c-141 -73 -256 -136 -256
-141 0 -10 142 -83 191 -99 71 -23 148 -30 211 -20 85 13 202 71 257 128 l45
47 63 -34 c35 -18 63 -38 63 -45 0 -22 -96 -103 -165 -139 -107 -55 -174 -72
-295 -71 -75 0 -129 6 -190 22 -279 72 -580 322 -580 479 0 54 36 118 85 152
108 74 239 96 393 64z" vector-effect="non-scaling-stroke" fill="none" stroke="currentColor" stroke-width="1"/>
<path d="M5945 2905 c-57 -20 -105 -75 -105 -120 0 -46 28 -100 77 -147 l38
-37 199 103 198 103 -28 20 c-113 80 -278 114 -379 78z m198 -20 c63 -16 157
-61 157 -74 0 -8 -322 -181 -338 -181 -13 0 -68 62 -86 97 -22 43 -20 75 6
108 47 61 147 80 261 50z" vector-effect="non-scaling-stroke" fill="none" stroke="currentColor" stroke-width="1"/>
<path d="M4751 2941 c-29 -22 -58 -44 -63 -49 -12 -12 1041 -806 1123 -848 28
-14 83 -32 121 -40 82 -17 157 -7 247 32 l56 25 -63 61 c-54 52 -66 59 -90 54
-78 -19 -127 -18 -172 6 -25 13 -280 198 -567 411 -288 213 -526 387 -530 387
-5 0 -32 -18 -62 -39z m598 -376 c287 -212 541 -395 564 -405 49 -23 93 -25
149 -8 l39 12 50 -51 51 -50 -71 -23 c-99 -31 -202 -26 -292 17 -39 18 -266
181 -589 422 -289 216 -529 396 -533 401 -10 9 83 80 99 75 6 -2 246 -177 533
-390z" vector-effect="non-scaling-stroke" fill="none" stroke="currentColor" stroke-width="1"/>
<path d="M4394 2710 c-26 -10 -54 -48 -54 -71 0 -25 38 -67 78 -88 55 -27 95
-34 142 -21 109 29 106 117 -7 174 -34 17 -123 21 -159 6z m166 -30 c65 -33
80 -92 30 -117 -33 -17 -113 -16 -153 1 -74 31 -98 98 -45 124 38 18 125 14
168 -8z" vector-effect="non-scaling-stroke" fill="none" stroke="currentColor" stroke-width="1"/>
<path d="M4733 2442 c-40 -20 -73 -40 -73 -44 0 -9 108 -95 534 -423 l349
-269 74 40 c41 21 79 44 84 50 6 8 -126 114 -430 345 -242 184 -446 335 -453
336 -7 1 -46 -14 -85 -35z m510 -303 c232 -177 425 -324 430 -328 4 -4 -22
-24 -59 -44 l-66 -36 -405 311 c-223 171 -418 321 -432 334 l-26 22 65 30 c36
17 66 31 68 31 1 1 193 -143 425 -320z" vector-effect="non-scaling-stroke" fill="none" stroke="currentColor" stroke-width="1"/>
</g>
</svg>
